<?xml version="1.0" encoding="UTF-8"?>
<svg id="Capa_2" data-name="Capa 2" xmlns="http://www.w3.org/2000/svg" xmlns:xlink="http://www.w3.org/1999/xlink" viewBox="0 0 512 512">
  <defs>
    <style>
      .cls-1 {
        fill: url(#Degradado_sin_nombre_11);
      }

      .cls-2 {
        fill: #faecd8;
      }
    </style>
    <linearGradient id="Degradado_sin_nombre_11" data-name="Degradado sin nombre 11" x1="256" y1="512" x2="256" y2="0" gradientUnits="userSpaceOnUse">
      <stop offset="0" stop-color="#275437"/>
      <stop offset="1" stop-color="#112d1c"/>
    </linearGradient>
  </defs>
  <g id="Capa_1-2" data-name="Capa 1">
    <rect id="back" class="cls-1" width="512" height="512" rx="122.18" ry="122.18"/>
    <g>
      <g>
        <path class="cls-2" d="M225.9,397.21h-42.9c-.09,6.02,2.43,10.91,8.08,13.29,4.23,1.79,10.46,1.54,14.41-.88,2.06-1.26,3.35-2.87,4.61-4.89.4-.31.53.01.66.01h13.51c.3.66-.31,1.03-.32,1.1-3.06,12.61-12.2,18.18-24.97,18.72-24.67,1.06-36.48-20.34-30.13-42.58,5.6-19.61,29.84-26.69,46.15-15.2,9.54,6.72,12.32,19.33,10.92,30.43ZM210.34,386.4c-.4-3.63-1.46-6.95-4.26-9.42-4.11-3.63-11.42-3.91-16.16-1.42-4.08,2.14-6.31,6.37-6.93,10.83h27.34Z"/>
        <path class="cls-2" d="M245.46,404.74c.29.09.37,1.4.5,1.8,1.01,3.06,3.96,5.58,7.2,5.9,3.54.34,9.06-.16,10.96-3.61.83-1.52.95-3.54,0-5.05s-3.59-2.5-5.31-3.04c-6.92-2.19-13.71-2.5-19.8-7.06-4.39-3.29-6.79-6.78-7.06-12.42-.66-13.76,11.87-20.43,24.16-19.9,4.13.18,8.85,1.15,12.47,3.08,6.21,3.31,9.66,8.95,10.69,15.85.04.14-.17.39-.24.39h-14.08c-.53,0-.56-1.17-.73-1.56-2.16-5.18-6.26-6.05-11.53-5.46-6.44.72-8.7,7.23-2.29,10.27,9.97,4.74,24.78,1.77,28.6,15.45,3.1,11.12-2.85,20.78-13.67,23.91-14.6,4.23-34-.92-35.01-18.55h15.15Z"/>
        <path class="cls-2" d="M322.5,362.83v13.67c0,.06-.21.25-.17.41-.16.06-.35-.17-.41-.17h-14.25l-.25.25v26.2c0,1.37.9,3.81,1.96,4.75,1.89,1.66,6.42,1.29,8.82.95.4-.06,2.81-.89,2.81-.3v13.26c0,.41-.9.62-1.25.72-9.12,2.52-22.11.76-26.29-8.88-2.24-5.17-1.51-17.51-1.61-23.6-.08-4.46-.16-8.89-.16-13.35h-9.33l-.17-13.35.25-.56h9.01l.25-16.21h15.47l.25.25v15.72l.25.25h14.82Z"/>
        <path class="cls-2" d="M421.5,371.4c15.71,16.96,8.51,45.16-13.7,51.76-23.43,6.97-45.89-11-42.03-35.64,4.06-25.89,38.3-34.93,55.73-16.11ZM392.31,409.76c3.31,1.15,8.9.78,12.12-.62,14.81-6.44,11.7-32.26-4.56-33.54-21.37-1.69-24.51,28.27-7.55,34.16Z"/>
        <path class="cls-2" d="M344.36,362.83c.09.01.26.16.38.19.04,3.86.14,7.75-.3,11.6l.67-.09c.95-9.45,10.68-13.75,19.21-11.22l-.07,13.61c-4.97-.68-10.21-1.36-14.25,2.21-2.84,2.51-4.51,7.41-4.75,11.13-.68,10.38.51,21.49.02,31.94l-.25.56h-13.75c-.15,0-.65-.26-.91-.24l-.15-10.33c-.24-16.23-.76-32.51-.51-48.8l.25-.56h14.41Z"/>
        <path class="cls-2" d="M160.15,379.53c.08.02.44.25.49.33.09,6.1.49,12.19-.79,18.21-6.89,32.58-52.88,34.46-70.16,9.35-14.17-20.59-8.06-49.98,13.97-62.11,15.16-8.35,38.51-7.09,50.43,6.38,2.62,2.96,4.36,6.51,5.95,10.1.03.27-.21.41-.43.5-4.19,1.85-8.98,3.37-13.3,5.04-.38.15-2.21,1.15-2.46.9-1.02-5.88-7.08-10.17-12.48-11.83-18.55-5.72-33.28,9.63-32.22,27.8.95,16.3,14.76,28.57,31.28,25.06,8.27-1.76,13.17-7.35,15.34-15.28.05-.18.06-.35.04-.53l-23.58-.41v-13.51h37.91Z"/>
        <path class="cls-2" d="M203.18,350.76c-5.7-4.56-3.26-13.51,3.66-15.23,5.95-1.67,11.96,3.44,10.91,9.61-.91,6.61-9.31,9.79-14.5,5.68l-.07-.06Z"/>
        <path class="cls-2" d="M183.18,335.41c5.97-.98,11.52,4.59,9.79,10.57-2.06,7.43-12.95,9.35-16.59,2.11-2.72-5.16,1-11.92,6.71-12.66h.09Z"/>
      </g>
      <g>
        <path class="cls-2" d="M354.17,103.86c5.97,6.92,9.3,15.61,10.62,24.58.37,2.5.6,5.02.66,7.54-.72,39.82.97,79.74.02,119.56-.14,12.24-3.64,25.02-11.52,34.16-6.78,8.14-17.36,13.82-29.85,15.74-1.69.07-22.52-.02-34.95.03-4.78,0-8.27,0-8.83,0-.08,0-.12-.16-.14-.59-.05-1.48.32-2.91.33-4.34.52-13.91-2.01-30.88,11.48-39.24,20.26-12.5,36.69-29.55,37.75-55.56.02-16.62.93-33.44.2-50.08-.19-3.11-.65-6.14-1.44-9.07-3.56-14.09-13.87-21.13-27.95-23.24-4.07-.68-8.18-1.07-12.21-1.33-3.91.02-7.82.21-11.76.16-15.42-.01-30.92-1.03-46.26-.17-16.92.89-33.36,10.8-39.79,26.65-6.79,16.75-3.45,35.4-4.19,53.56-.03,3.81,0,7.63.34,11.42,1.24,17.86,12.6,33.84,27.51,43.24,6.21,4.1,12.95,7.9,16.4,14.72,1.13,2.2,1.99,5.18,2.19,7.89.1,2.02,1.26,24.89,1.31,25.91,0,.04,0,.06-.02.07-.03.01-.12,0-.28,0-13.04-.15-34.77.31-47.76-.16-23.05-3.27-38.9-22.05-39.78-45.08-.07-2.31.02-94.37.03-122.52.25-5.57.13-10.98,1.58-16.41,5.42-20.57,24.25-34.01,45.2-34,1.48,0,72.8,0,108.2,0,11.86.02,18.59-.05,19.95.04,12.8,1.03,24.56,6.75,32.92,16.47l.03.04Z"/>
        <path class="cls-2" d="M248.43,228.86v-9.51c0-.69.38-3.04.66-3.78,2.5-6.75,12.21-7.52,15.11-.52.28.69,1.18,3.47,1.18,4.04v10.03c.29.05.52-.03.79-.12,3.5-1.1,8.85-4.48,11.19-7.31,4.25-5.15,3.43-12.6,10.55-14.99,3.96-1.33,9.49,2.62,10.03,6.68.39,2.93-1.21,7.87-2.4,10.59-2.67,6.07-7.39,11.52-12.71,15.43-7.03,5.17-15.33,6.77-16.64,16.99-1.97,15.41.33,32.58-.53,48.2l-.4.9h-16.55l-.27-6.63c-.42-11.78.6-24,.02-35.73-.19-3.8-.68-10.19-2.92-13.24-2.64-3.59-8.68-5.98-12.45-8.41-11.02-7.1-15.85-17.8-16.45-30.72-.69-14.67.55-29.87,0-44.59.44-3.34-.03-6.16,2.25-8.96,5.15-6.32,13.99-2.28,14.97,5.06v50.05c.25,1.54.43,3.1.85,4.61,2.02,7.14,7.02,9.93,13.74,11.93Z"/>
        <path class="cls-2" d="M279.01,187.24c-5.7,5.57-10.52,13.49-18.46,5.14-3.25-3.42-7.79-8.6-10.55-12.39-3.49-4.8-2.66-10.06,2.6-13.03,7-3.97,11.43,2.93,15.11,7.84,1.02.13,1.05-.56,1.56-1.06,5.74-5.65,11.41-11.36,17.22-16.93,2.6-2.49,7.18-7.98,10.83-8.46s7.39,1.73,8.93,4.85c2.58,5.22-1.07,8.72-4.51,12.08-7.52,7.36-15.21,14.62-22.73,21.97Z"/>
      </g>
    </g>
  </g>
</svg>