<?xml version="1.0" encoding="UTF-8"?>
<svg id="Capa_1" data-name="Capa 1" xmlns="http://www.w3.org/2000/svg" viewBox="0 0 1141.11 302.83">
  <defs>
    <style>
      .cls-1 {
        fill: #112D1C;
      }
    </style>
  </defs>
  <path class="cls-1" d="M684.59,187.44h-95.99c-.2,13.46,5.44,24.41,18.07,29.74,9.47,4,23.4,3.45,32.23-1.97,4.6-2.82,7.5-6.42,10.31-10.95,.91-.7,1.18.03,1.48,.03h30.22c.66,1.49-.69,2.31-.72,2.45-6.84,28.22-27.3,40.67-55.86,41.89-55.21,2.36-81.62-45.51-67.42-95.27,12.52-43.87,66.77-59.73,103.25-34.01,21.34,15.04,27.57,43.26,24.43,68.08ZM649.79,163.26c-.9-8.13-3.27-15.55-9.52-21.07-9.19-8.12-25.55-8.74-36.15-3.17-9.13,4.8-14.13,14.26-15.51,24.24h61.18Z"/>
  <path class="cls-1" d="M728.37,204.3c.66.21.82,3.14,1.11,4.02,2.26,6.84,8.87,12.49,16.11,13.2,7.92.77,20.27-.35,24.51-8.09,1.86-3.39,2.13-7.92,0-11.29s-8.03-5.59-11.87-6.81c-15.49-4.91-30.67-5.59-44.3-15.79-9.83-7.36-15.2-15.16-15.8-27.8-1.47-30.78,26.57-45.71,54.05-44.52,9.24.4,19.8,2.58,27.91,6.89,13.89,7.4,21.6,20.02,23.92,35.45.08.3-.37.88-.53.88h-31.51c-1.19,0-1.26-2.61-1.63-3.5-4.84-11.59-14-13.53-25.8-12.21-14.42,1.61-19.47,16.17-5.13,22.99,22.3,10.6,55.44,3.95,63.98,34.57,6.94,24.89-6.37,46.49-30.58,53.51-32.66,9.46-76.08-2.07-78.32-41.5h33.89Z"/>
  <path class="cls-1" d="M900.75,110.51v30.59c0,.14-.48.56-.37.92-.37.13-.78-.37-.91-.37h-31.87l-.55.55v58.62c0,3.06,2.01,8.53,4.39,10.63,4.23,3.72,14.36,2.89,19.73,2.14.89-.13,6.29-1.98,6.29-.67v29.68c0,.91-2.01,1.4-2.79,1.61-20.4,5.65-49.47,1.69-58.83-19.86-5.02-11.56-3.38-39.18-3.61-52.81-.17-9.98-.36-19.89-.35-29.87h-20.88l-.39-29.88.57-1.26h20.15l.55-36.27h34.62l.55.55v35.17l.55.55h33.16Z"/>
  <path class="cls-1" d="M1122.25,129.69c35.14,37.95,19.03,101.03-30.65,115.8-52.43,15.58-102.69-24.6-94.04-79.75,9.08-57.93,85.7-78.16,124.69-36.05ZM1056.94,215.51c7.41,2.57,19.92,1.75,27.11-1.38,33.13-14.41,26.18-72.17-10.21-75.05-47.81-3.78-54.85,63.26-16.9,76.43Z"/>
  <path class="cls-1" d="M949.65,110.51c.2.03.57.36.86.43.08,8.63.31,17.34-.67,25.95l1.5-.21c2.12-21.14,23.9-30.75,42.98-25.11l-.15,30.45c-11.12-1.51-22.84-3.04-31.88,4.94-6.36,5.62-10.09,16.57-10.64,24.9-1.52,23.22,1.15,48.09.03,71.47l-.57,1.26h-30.77c-.34,0-1.46-.58-2.03-.53l-.34-23.11c-.53-36.32-1.7-72.73-1.13-109.18l.57-1.26h32.24Z"/>
  <path class="cls-1" d="M537.5,147.88c.18.04,1,.56,1.1.73.19,13.66,1.09,27.27-1.76,40.73-15.41,72.89-118.31,77.11-156.99,20.93-31.72-46.06-18.02-111.82,31.26-138.96,33.91-18.67,86.17-15.87,112.84,14.28,5.87,6.63,9.76,14.56,13.31,22.6.06.6-.48.91-.96,1.12-9.38,4.14-20.1,7.53-29.76,11.28-.86.33-4.95,2.58-5.5,2.01-2.29-13.15-15.84-22.75-27.93-26.48-41.51-12.81-74.46,21.54-72.08,62.19,2.13,36.47,33.03,63.93,69.98,56.07,18.51-3.94,29.46-16.43,34.33-34.18.11-.4.13-.78.1-1.18l-52.76-.91v-30.23h84.82Z"/>
  <path class="cls-1" d="M633.76,83.51c-12.74-10.2-7.3-30.24,8.19-34.08,13.32-3.73,26.75,7.71,24.4,21.5-2.04,14.8-20.84,21.9-32.44,12.7l-.16-.13Z"/>
  <path class="cls-1" d="M589.03,49.17c13.35-2.2,25.77,10.27,21.9,23.64-4.61,16.62-28.97,20.92-37.12,4.72-6.09-11.54,2.24-26.68,15.02-28.34l.2-.03Z"/>
  <path class="cls-1" d="M288.56,22.96c8.29,9.6,12.91,21.65,14.74,34.11.51,3.46.83,6.97.91,10.46-1.01,55.26,1.35,110.66.03,165.91-.2,16.98-5.05,34.72-15.98,47.4-9.41,11.29-24.09,19.17-41.43,21.85-2.35.1-31.26-.03-48.49.04-6.63,0-11.47.01-12.25,0-.11,0-.17-.22-.19-.82-.07-2.05.45-4.03.46-6.03.73-19.3-2.78-42.85,15.94-54.45,28.12-17.35,50.91-41.01,52.38-77.1.02-23.06,1.29-46.41.27-69.49-.26-4.31-.9-8.52-2-12.59-4.95-19.55-19.24-29.32-38.79-32.24-5.64-.94-11.36-1.48-16.95-1.85-5.42.03-10.85.29-16.32.22-21.4-.02-42.9-1.43-64.19-.24-23.48,1.24-46.29,14.99-55.21,36.98-9.43,23.24-4.79,49.12-5.81,74.32-.04,5.28,0,10.59.47,15.85,1.72,24.78,17.49,46.96,38.17,60,8.61,5.69,17.96,10.96,22.76,20.42,1.57,3.06,2.76,7.19,3.04,10.95.14,2.81,1.75,34.54,1.82,35.96,0,.06,0,.08-.03.09-.05.02-.17,0-.38,0-18.09-.21-48.26.43-66.28-.22C23.25,297.99,1.26,271.94.04,239.98c-.09-3.21.03-130.96.04-170.01.35-7.72.18-15.24,2.19-22.78C9.79,18.64,35.91,0,64.99.01c2.05,0,101.02,0,150.14,0,16.45.03,25.8-.07,27.69.05,17.77,1.43,34.08,9.37,45.69,22.85l.05.05Z"/>
  <path class="cls-1" d="M141.83,196.42v-13.2c0-.96.53-4.22.91-5.24,3.47-9.37,16.95-10.44,20.97-.72.4.96,1.63,4.81,1.63,5.6v13.92c.41.07.72-.05,1.1-.16,4.85-1.53,12.28-6.21,15.53-10.15,5.9-7.14,4.75-17.49,14.64-20.81,5.49-1.84,13.17,3.64,13.91,9.26.54,4.06-1.68,10.92-3.34,14.7-3.71,8.43-10.26,15.99-17.64,21.42-9.76,7.17-21.27,9.4-23.08,23.57-2.73,21.38.45,45.21-.74,66.89l-.56,1.25h-22.97l-.38-9.21c-.59-16.35.84-33.3.03-49.58-.26-5.27-.94-14.14-4.06-18.37-3.67-4.98-12.05-8.3-17.27-11.66-15.29-9.85-21.99-24.7-22.83-42.63-.95-20.36.76-41.45,0-61.88.61-4.63-.05-8.55,3.12-12.43,7.15-8.77,19.42-3.16,20.77,7.02l-.02,69.46c.36,2.13.61,4.31,1.2,6.39,2.81,9.91,9.74,13.78,19.07,16.56Z"/>
  <path class="cls-1" d="M184.26,138.66c-7.91,7.73-14.6,18.72-25.62,7.13-4.51-4.75-10.81-11.93-14.64-17.19-4.85-6.66-3.69-13.96,3.6-18.09,9.71-5.5,15.86,4.07,20.97,10.87,1.42.19,1.45-.77,2.17-1.47,7.97-7.84,15.84-15.77,23.89-23.49,3.61-3.46,9.97-11.07,15.03-11.74s10.25,2.4,12.39,6.73c3.59,7.24-1.48,12.1-6.26,16.77-10.44,10.21-21.1,20.29-31.54,30.49Z"/>
</svg>
