<?xml version="1.0" encoding="UTF-8"?>
<svg id="Capa_1" data-name="Capa 1" xmlns="http://www.w3.org/2000/svg" viewBox="0 0 302.83 302.83">
  <defs>
    <style>
      .cls-1 {
        fill: #FAECD8;
      }
    </style>
  </defs>
  <path class="cls-1" d="M288.56,22.96c8.29,9.6,12.91,21.65,14.74,34.11.51,3.46.83,6.97.91,10.46-1.01,55.26,1.35,110.66.03,165.91-.2,16.98-5.05,34.72-15.98,47.4-9.41,11.29-24.09,19.17-41.43,21.85-2.35.1-31.26-.03-48.49.04-6.63,0-11.47.01-12.25,0-.11,0-.17-.22-.19-.82-.07-2.05.45-4.03.46-6.03.73-19.3-2.78-42.85,15.94-54.45,28.12-17.35,50.91-41.01,52.38-77.1.02-23.06,1.29-46.41.27-69.49-.26-4.31-.9-8.52-2-12.59-4.95-19.55-19.24-29.32-38.79-32.24-5.64-.94-11.36-1.48-16.95-1.85-5.42.03-10.85.29-16.32.22-21.4-.02-42.9-1.43-64.19-.24-23.48,1.24-46.29,14.99-55.21,36.98-9.43,23.24-4.79,49.12-5.81,74.32-.04,5.28,0,10.59.47,15.85,1.72,24.78,17.49,46.96,38.17,60,8.61,5.69,17.96,10.96,22.76,20.42,1.57,3.06,2.76,7.19,3.04,10.95.14,2.81,1.75,34.54,1.82,35.96,0,.06,0,.08-.03.09-.05.02-.17,0-.38,0-18.09-.21-48.26.43-66.28-.22C23.25,297.99,1.26,271.94.04,239.98c-.09-3.21.03-130.96.04-170.01.35-7.72.18-15.24,2.19-22.78C9.79,18.64,35.91,0,64.99.01c2.05,0,101.02,0,150.14,0,16.45.03,25.8-.07,27.69.05,17.77,1.43,34.08,9.37,45.69,22.85l.05.05Z"/>
  <path class="cls-1" d="M141.83,196.42v-13.2c0-.96.53-4.22.91-5.24,3.47-9.37,16.95-10.44,20.97-.72.4.96,1.63,4.81,1.63,5.6v13.92c.41.07.72-.05,1.1-.16,4.85-1.53,12.28-6.21,15.53-10.15,5.9-7.14,4.75-17.49,14.64-20.81,5.49-1.84,13.17,3.64,13.91,9.26.54,4.06-1.68,10.92-3.34,14.7-3.71,8.43-10.26,15.99-17.64,21.42-9.76,7.17-21.27,9.4-23.08,23.57-2.73,21.38.45,45.21-.74,66.89l-.56,1.25h-22.97l-.38-9.21c-.59-16.35.84-33.3.03-49.58-.26-5.27-.94-14.14-4.06-18.37-3.67-4.98-12.05-8.3-17.27-11.66-15.29-9.85-21.99-24.7-22.83-42.63-.95-20.36.76-41.45,0-61.88.61-4.63-.05-8.55,3.12-12.43,7.15-8.77,19.42-3.16,20.77,7.02l-.02,69.46c.36,2.13.61,4.31,1.2,6.39,2.81,9.91,9.74,13.78,19.07,16.56Z"/>
  <path class="cls-1" d="M184.26,138.66c-7.91,7.73-14.6,18.72-25.62,7.13-4.51-4.75-10.81-11.93-14.64-17.19-4.85-6.66-3.69-13.96,3.6-18.09,9.71-5.5,15.86,4.07,20.97,10.87,1.42.19,1.45-.77,2.17-1.47,7.97-7.84,15.84-15.77,23.89-23.49,3.61-3.46,9.97-11.07,15.03-11.74s10.25,2.4,12.39,6.73c3.59,7.24-1.48,12.1-6.26,16.77-10.44,10.21-21.1,20.29-31.54,30.49Z"/>
</svg>
